<svg id="mermaid-svg-4fAljUuDLrI2QnAb" width="100%" xmlns="http://www.w3.org/2000/svg" xmlns:xlink="http://www.w3.org/1999/xlink" height="238.71875" style="max-width: 611.70703125px;" viewBox="-27.421875 -20 611.70703125 238.71875"><style>#mermaid-svg-4fAljUuDLrI2QnAb{font-family:"trebuchet ms",verdana,arial,sans-serif;font-size:16px;fill:#000000;}#mermaid-svg-4fAljUuDLrI2QnAb .error-icon{fill:#552222;}#mermaid-svg-4fAljUuDLrI2QnAb .error-text{fill:#552222;stroke:#552222;}#mermaid-svg-4fAljUuDLrI2QnAb .edge-thickness-normal{stroke-width:2px;}#mermaid-svg-4fAljUuDLrI2QnAb .edge-thickness-thick{stroke-width:3.5px;}#mermaid-svg-4fAljUuDLrI2QnAb .edge-pattern-solid{stroke-dasharray:0;}#mermaid-svg-4fAljUuDLrI2QnAb .edge-pattern-dashed{stroke-dasharray:3;}#mermaid-svg-4fAljUuDLrI2QnAb .edge-pattern-dotted{stroke-dasharray:2;}#mermaid-svg-4fAljUuDLrI2QnAb .marker{fill:#666;stroke:#666;}#mermaid-svg-4fAljUuDLrI2QnAb .marker.cross{stroke:#666;}#mermaid-svg-4fAljUuDLrI2QnAb svg{font-family:"trebuchet ms",verdana,arial,sans-serif;font-size:16px;}#mermaid-svg-4fAljUuDLrI2QnAb g.classGroup text{fill:#999;fill:#111111;stroke:none;font-family:"trebuchet ms",verdana,arial,sans-serif;font-size:10px;}#mermaid-svg-4fAljUuDLrI2QnAb g.classGroup text .title{font-weight:bolder;}#mermaid-svg-4fAljUuDLrI2QnAb .classTitle{font-weight:bolder;}#mermaid-svg-4fAljUuDLrI2QnAb .node rect,#mermaid-svg-4fAljUuDLrI2QnAb .node circle,#mermaid-svg-4fAljUuDLrI2QnAb .node ellipse,#mermaid-svg-4fAljUuDLrI2QnAb .node polygon,#mermaid-svg-4fAljUuDLrI2QnAb .node path{fill:#eee;stroke:#999;stroke-width:1px;}#mermaid-svg-4fAljUuDLrI2QnAb .divider{stroke:#999;stroke:1;}#mermaid-svg-4fAljUuDLrI2QnAb g.clickable{cursor:pointer;}#mermaid-svg-4fAljUuDLrI2QnAb g.classGroup rect{fill:#eee;stroke:#999;}#mermaid-svg-4fAljUuDLrI2QnAb g.classGroup line{stroke:#999;stroke-width:1;}#mermaid-svg-4fAljUuDLrI2QnAb .classLabel .box{stroke:none;stroke-width:0;fill:#eee;opacity:0.5;}#mermaid-svg-4fAljUuDLrI2QnAb .classLabel .label{fill:#999;font-size:10px;}#mermaid-svg-4fAljUuDLrI2QnAb .relation{stroke:#666;stroke-width:1;fill:none;}#mermaid-svg-4fAljUuDLrI2QnAb .dashed-line{stroke-dasharray:3;}#mermaid-svg-4fAljUuDLrI2QnAb #compositionStart,#mermaid-svg-4fAljUuDLrI2QnAb .composition{fill:#666 !important;stroke:#666 !important;stroke-width:1;}#mermaid-svg-4fAljUuDLrI2QnAb #compositionEnd,#mermaid-svg-4fAljUuDLrI2QnAb .composition{fill:#666 !important;stroke:#666 !important;stroke-width:1;}#mermaid-svg-4fAljUuDLrI2QnAb #dependencyStart,#mermaid-svg-4fAljUuDLrI2QnAb .dependency{fill:#666 !important;stroke:#666 !important;stroke-width:1;}#mermaid-svg-4fAljUuDLrI2QnAb #dependencyStart,#mermaid-svg-4fAljUuDLrI2QnAb .dependency{fill:#666 !important;stroke:#666 !important;stroke-width:1;}#mermaid-svg-4fAljUuDLrI2QnAb #extensionStart,#mermaid-svg-4fAljUuDLrI2QnAb .extension{fill:#666 !important;stroke:#666 !important;stroke-width:1;}#mermaid-svg-4fAljUuDLrI2QnAb #extensionEnd,#mermaid-svg-4fAljUuDLrI2QnAb .extension{fill:#666 !important;stroke:#666 !important;stroke-width:1;}#mermaid-svg-4fAljUuDLrI2QnAb #aggregationStart,#mermaid-svg-4fAljUuDLrI2QnAb .aggregation{fill:#eee !important;stroke:#666 !important;stroke-width:1;}#mermaid-svg-4fAljUuDLrI2QnAb #aggregationEnd,#mermaid-svg-4fAljUuDLrI2QnAb .aggregation{fill:#eee !important;stroke:#666 !important;stroke-width:1;}#mermaid-svg-4fAljUuDLrI2QnAb .edgeTerminals{font-size:11px;}#mermaid-svg-4fAljUuDLrI2QnAb:root{--mermaid-font-family:"trebuchet ms",verdana,arial,sans-serif;}#mermaid-svg-4fAljUuDLrI2QnAb class{fill:apa;}</style><g></g><defs><marker id="extensionStart" class="extension" refX="0" refY="7" markerWidth="190" markerHeight="240" orient="auto"><path d="M 1,7 L18,13 V 1 Z"></path></marker></defs><defs><marker id="extensionEnd" refX="19" refY="7" markerWidth="20" markerHeight="28" orient="auto"><path d="M 1,1 V 13 L18,7 Z"></path></marker></defs><defs><marker id="compositionStart" class="extension" refX="0" refY="7" markerWidth="190" markerHeight="240" orient="auto"><path d="M 18,7 L9,13 L1,7 L9,1 Z"></path></marker></defs><defs><marker id="compositionEnd" refX="19" refY="7" markerWidth="20" markerHeight="28" orient="auto"><path d="M 18,7 L9,13 L1,7 L9,1 Z"></path></marker></defs><defs><marker id="aggregationStart" class="extension" refX="0" refY="7" markerWidth="190" markerHeight="240" orient="auto"><path d="M 18,7 L9,13 L1,7 L9,1 Z"></path></marker></defs><defs><marker id="aggregationEnd" refX="19" refY="7" markerWidth="20" markerHeight="28" orient="auto"><path d="M 18,7 L9,13 L1,7 L9,1 Z"></path></marker></defs><defs><marker id="dependencyStart" class="extension" refX="0" refY="7" markerWidth="190" markerHeight="240" orient="auto"><path d="M 5,7 L9,13 L1,7 L9,1 Z"></path></marker></defs><defs><marker id="dependencyEnd" refX="19" refY="7" markerWidth="20" markerHeight="28" orient="auto"><path d="M 18,7 L9,13 L14,7 L9,1 Z"></path></marker></defs><g id="classid-Space-3062" class="classGroup" transform="translate(59.6953125,0 )"><rect x="0" y="0" width="132.015625" height="79.359375" class=" "></rect><text y="15" x="0"><tspan x="40.2734375">«interface»</tspan><tspan class="title" dy="10" x="52.4375">Space</tspan></text><line x1="0" y1="31.453125" y2="31.453125" x2="132.015625"></line><text x="5" y="41.453125" fill="white" class="classText"><tspan x="5">+int dimension</tspan></text><line x1="0" y1="47.90625" y2="47.90625" x2="132.015625"></line><text x="5" y="62.90625" fill="white" class="classText"><tspan x="5">+get_eigenvalues(num)</tspan><tspan x="5" dy="10">+get_eigenfunctions(num)</tspan></text></g><g id="classid-Graph-3063" class="classGroup" transform="translate(0,148.734375 )"><rect x="0" y="0" width="38.078125" height="30.609375" class=" "></rect><text y="15" x="0"><tspan class="title" x="5">Graph</tspan></text><line x1="0" y1="21.453125" y2="21.453125" x2="38.078125"></line><text x="5" y="31.453125" fill="white" class="classText"></text><line x1="0" y1="26.453125" y2="26.453125" x2="38.078125"></line><text x="5" y="41.453125" fill="white" class="classText"></text></g><g id="classid-Mesh-3064" class="classGroup" transform="translate(88.078125,129.359375 )"><rect x="0" y="0" width="75.25" height="69.359375" class=" "></rect><text y="15" x="0"><tspan class="title" x="25.90625">Mesh</tspan></text><line x1="0" y1="21.453125" y2="21.453125" x2="75.25"></line><text x="5" y="31.453125" fill="white" class="classText"><tspan x="5">+vertices</tspan><tspan x="5" dy="10">+faces</tspan></text><line x1="0" y1="47.90625" y2="47.90625" x2="75.25"></line><text x="5" y="62.90625" fill="white" class="classText"><tspan x="5">+load_mesh()</tspan></text></g><g id="classid-Hypersphere-3065" class="classGroup" transform="translate(215.81640625,140.0859375 )"><rect x="0" y="0" width="149.484375" height="47.90625" class=" "></rect><text y="15" x="0"><tspan class="title" x="44.8203125">Hypersphere</tspan></text><line x1="0" y1="21.453125" y2="21.453125" x2="149.484375"></line><text x="5" y="31.453125" fill="white" class="classText"></text><line x1="0" y1="26.453125" y2="26.453125" x2="149.484375"></line><text x="5" y="41.453125" fill="white" class="classText"><tspan x="5">+all_functions_in_geomstats()</tspan></text></g><g id="classid-GeomstatsManifolds-3066" class="classGroup" transform="translate(249.22265625,24.375 )"><rect x="0" y="0" width="102.671875" height="30.609375" class=" "></rect><text y="15" x="0"><tspan class="title" x="5">GeomstatsManifolds</tspan></text><line x1="0" y1="21.453125" y2="21.453125" x2="102.671875"></line><text x="5" y="31.453125" fill="white" class="classText"></text><line x1="0" y1="26.453125" y2="26.453125" x2="102.671875"></line><text x="5" y="41.453125" fill="white" class="classText"></text></g><g id="classid-BaseGeometricKernel-3067" class="classGroup" transform="translate(401.89453125,0 )"><rect x="0" y="0" width="162.390625" height="79.359375" class=" "></rect><text y="15" x="0"><tspan x="55.4609375">«interface»</tspan><tspan class="title" dy="10" x="30.7265625">BaseGeometricKernel</tspan></text><line x1="0" y1="31.453125" y2="31.453125" x2="162.390625"></line><text x="5" y="41.453125" fill="white" class="classText"><tspan x="5">+Space space</tspan></text><line x1="0" y1="47.90625" y2="47.90625" x2="162.390625"></line><text x="5" y="62.90625" fill="white" class="classText"><tspan x="5">+K(X, parameters)</tspan><tspan x="5" dy="10">+K_diag(X, parameters)</tspan></text></g><g id="classid-MeshKernel-3068" class="classGroup" transform="translate(436.53515625,130.0859375 )"><rect x="0" y="0" width="93.109375" height="67.90625" class=" "></rect><text y="15" x="0"><tspan class="title" x="19.4375">MeshKernel</tspan></text><line x1="0" y1="21.453125" y2="21.453125" x2="93.109375"></line><text x="5" y="31.453125" fill="white" class="classText"></text><line x1="0" y1="26.453125" y2="26.453125" x2="93.109375"></line><text x="5" y="41.453125" fill="white" class="classText"><tspan x="5">+spectrum()</tspan><tspan x="5" dy="10">+eigenfunctions()</tspan><tspan x="5" dy="10">+eigenvalues()</tspan></text></g><path d="M60.26686779049402,79.359375L53.39556690874502,83.52604166666667C46.52426602699601,87.69270833333333,32.78166426349801,96.02604166666667,25.910363381749004,107.58854166666667C19.0390625,119.15104166666667,19.0390625,133.94270833333334,19.0390625,141.33854166666666L19.0390625,148.734375" id="edge1646" class="relation" marker-start="url(#extensionStart)"></path><g class="classLabel"><rect class="box" x="-7.421875" y="91.71875" width="56.203125" height="16.4375"></rect><text class="label" x="20.68100749810981" y="103.36372110420047" fill="red" text-anchor="middle">Inheritence</text></g><path d="M125.703125,79.359375L125.703125,83.52604166666667C125.703125,87.69270833333333,125.703125,96.02604166666667,125.703125,104.359375C125.703125,112.69270833333333,125.703125,121.02604166666667,125.703125,125.19270833333333L125.703125,129.359375" id="edge1647" class="relation" marker-start="url(#extensionStart)"></path><path d="M181.64242596101582,79.359375L187.51647475917983,83.52604166666667C193.39052355734387,87.69270833333333,205.13862115367192,96.02604166666667,218.36314087680432,106.14713541666667C231.58766059993673,116.26822916666667,246.28860244987345,128.17708333333334,253.63907337484181,134.13151041666666L260.9895442998102,140.0859375" id="edge1648" class="relation" marker-start="url(#extensionStart)"></path><path d="M300.55859375,54.984375L300.55859375,63.213541666666664C300.55859375,71.44270833333333,300.55859375,87.90104166666667,299.5608628079046,102.08463541666667C298.5631318658092,116.26822916666667,296.56766998161845,128.17708333333334,295.56993903952304,134.13151041666666L294.5722080974277,140.0859375" id="edge1649" class="relation" marker-start="url(#extensionStart)"></path><path d="M483.08984375,79.359375L483.08984375,83.52604166666667C483.08984375,87.69270833333333,483.08984375,96.02604166666667,483.08984375,104.48046875C483.08984375,112.93489583333333,483.08984375,121.51041666666667,483.08984375,125.79817708333333L483.08984375,130.0859375" id="edge1650" class="relation" marker-start="url(#extensionStart)"></path></svg>