<svg id="mermaid-svg-N7MzjMxaoE04rDZk" width="100%" xmlns="http://www.w3.org/2000/svg" xmlns:xlink="http://www.w3.org/1999/xlink" height="463" style="max-width: 1446.3499755859375px;" viewBox="-20 -20 1446.3499755859375 463"><style>#mermaid-svg-N7MzjMxaoE04rDZk{font-family:"trebuchet ms",verdana,arial,sans-serif;font-size:16px;fill:#000000;}#mermaid-svg-N7MzjMxaoE04rDZk .error-icon{fill:#552222;}#mermaid-svg-N7MzjMxaoE04rDZk .error-text{fill:#552222;stroke:#552222;}#mermaid-svg-N7MzjMxaoE04rDZk .edge-thickness-normal{stroke-width:2px;}#mermaid-svg-N7MzjMxaoE04rDZk .edge-thickness-thick{stroke-width:3.5px;}#mermaid-svg-N7MzjMxaoE04rDZk .edge-pattern-solid{stroke-dasharray:0;}#mermaid-svg-N7MzjMxaoE04rDZk .edge-pattern-dashed{stroke-dasharray:3;}#mermaid-svg-N7MzjMxaoE04rDZk .edge-pattern-dotted{stroke-dasharray:2;}#mermaid-svg-N7MzjMxaoE04rDZk .marker{fill:#666;stroke:#666;}#mermaid-svg-N7MzjMxaoE04rDZk .marker.cross{stroke:#666;}#mermaid-svg-N7MzjMxaoE04rDZk svg{font-family:"trebuchet ms",verdana,arial,sans-serif;font-size:16px;}#mermaid-svg-N7MzjMxaoE04rDZk g.classGroup text{fill:#999;fill:#111111;stroke:none;font-family:"trebuchet ms",verdana,arial,sans-serif;font-size:10px;}#mermaid-svg-N7MzjMxaoE04rDZk g.classGroup text .title{font-weight:bolder;}#mermaid-svg-N7MzjMxaoE04rDZk .classTitle{font-weight:bolder;}#mermaid-svg-N7MzjMxaoE04rDZk .node rect,#mermaid-svg-N7MzjMxaoE04rDZk .node circle,#mermaid-svg-N7MzjMxaoE04rDZk .node ellipse,#mermaid-svg-N7MzjMxaoE04rDZk .node polygon,#mermaid-svg-N7MzjMxaoE04rDZk .node path{fill:#eee;stroke:#999;stroke-width:1px;}#mermaid-svg-N7MzjMxaoE04rDZk .divider{stroke:#999;stroke:1;}#mermaid-svg-N7MzjMxaoE04rDZk g.clickable{cursor:pointer;}#mermaid-svg-N7MzjMxaoE04rDZk g.classGroup rect{fill:#eee;stroke:#999;}#mermaid-svg-N7MzjMxaoE04rDZk g.classGroup line{stroke:#999;stroke-width:1;}#mermaid-svg-N7MzjMxaoE04rDZk .classLabel .box{stroke:none;stroke-width:0;fill:#eee;opacity:0.5;}#mermaid-svg-N7MzjMxaoE04rDZk .classLabel .label{fill:#999;font-size:10px;}#mermaid-svg-N7MzjMxaoE04rDZk .relation{stroke:#666;stroke-width:1;fill:none;}#mermaid-svg-N7MzjMxaoE04rDZk .dashed-line{stroke-dasharray:3;}#mermaid-svg-N7MzjMxaoE04rDZk #compositionStart,#mermaid-svg-N7MzjMxaoE04rDZk .composition{fill:#666 !important;stroke:#666 !important;stroke-width:1;}#mermaid-svg-N7MzjMxaoE04rDZk #compositionEnd,#mermaid-svg-N7MzjMxaoE04rDZk .composition{fill:#666 !important;stroke:#666 !important;stroke-width:1;}#mermaid-svg-N7MzjMxaoE04rDZk #dependencyStart,#mermaid-svg-N7MzjMxaoE04rDZk .dependency{fill:#666 !important;stroke:#666 !important;stroke-width:1;}#mermaid-svg-N7MzjMxaoE04rDZk #dependencyStart,#mermaid-svg-N7MzjMxaoE04rDZk .dependency{fill:#666 !important;stroke:#666 !important;stroke-width:1;}#mermaid-svg-N7MzjMxaoE04rDZk #extensionStart,#mermaid-svg-N7MzjMxaoE04rDZk .extension{fill:#666 !important;stroke:#666 !important;stroke-width:1;}#mermaid-svg-N7MzjMxaoE04rDZk #extensionEnd,#mermaid-svg-N7MzjMxaoE04rDZk .extension{fill:#666 !important;stroke:#666 !important;stroke-width:1;}#mermaid-svg-N7MzjMxaoE04rDZk #aggregationStart,#mermaid-svg-N7MzjMxaoE04rDZk .aggregation{fill:#eee !important;stroke:#666 !important;stroke-width:1;}#mermaid-svg-N7MzjMxaoE04rDZk #aggregationEnd,#mermaid-svg-N7MzjMxaoE04rDZk .aggregation{fill:#eee !important;stroke:#666 !important;stroke-width:1;}#mermaid-svg-N7MzjMxaoE04rDZk .edgeTerminals{font-size:11px;}#mermaid-svg-N7MzjMxaoE04rDZk:root{--mermaid-font-family:"trebuchet ms",verdana,arial,sans-serif;}#mermaid-svg-N7MzjMxaoE04rDZk class{fill:apa;}</style><g></g><defs><marker id="extensionStart" class="extension" refX="0" refY="7" markerWidth="190" markerHeight="240" orient="auto"><path d="M 1,7 L18,13 V 1 Z"></path></marker></defs><defs><marker id="extensionEnd" refX="19" refY="7" markerWidth="20" markerHeight="28" orient="auto"><path d="M 1,1 V 13 L18,7 Z"></path></marker></defs><defs><marker id="compositionStart" class="extension" refX="0" refY="7" markerWidth="190" markerHeight="240" orient="auto"><path d="M 18,7 L9,13 L1,7 L9,1 Z"></path></marker></defs><defs><marker id="compositionEnd" refX="19" refY="7" markerWidth="20" markerHeight="28" orient="auto"><path d="M 18,7 L9,13 L1,7 L9,1 Z"></path></marker></defs><defs><marker id="aggregationStart" class="extension" refX="0" refY="7" markerWidth="190" markerHeight="240" orient="auto"><path d="M 18,7 L9,13 L1,7 L9,1 Z"></path></marker></defs><defs><marker id="aggregationEnd" refX="19" refY="7" markerWidth="20" markerHeight="28" orient="auto"><path d="M 18,7 L9,13 L1,7 L9,1 Z"></path></marker></defs><defs><marker id="dependencyStart" class="extension" refX="0" refY="7" markerWidth="190" markerHeight="240" orient="auto"><path d="M 5,7 L9,13 L1,7 L9,1 Z"></path></marker></defs><defs><marker id="dependencyEnd" refX="19" refY="7" markerWidth="20" markerHeight="28" orient="auto"><path d="M 18,7 L9,13 L14,7 L9,1 Z"></path></marker></defs><g id="classid-BaseGeometricKernel-3173" class="classGroup" transform="translate(326.5999984741211,151 )"><rect x="0" y="0" width="135" height="81" class=" "></rect><text y="15" x="0"><tspan class="title" x="15.099998474121094">BaseGeometricKernel</tspan></text><line x1="0" y1="22" y2="22" x2="135"></line><text x="5" y="32" fill="white" class="classText"><tspan x="5">space</tspan></text><line x1="0" y1="39" y2="39" x2="135"></line><text x="5" y="54" fill="white" class="classText"><tspan x="5">K(params, state, X, X2)</tspan><tspan x="5" dy="10">K_diag(params, state, X)</tspan><tspan x="5" dy="10">init_params_and_state()</tspan></text></g><g id="classid-Circle-3174" class="classGroup" transform="translate(596.3500003814697,312 )"><rect x="0" y="0" width="186.1999969482422" height="81" class=" "></rect><text y="15" x="0"><tspan class="title" x="78.69999885559082">Circle</tspan></text><line x1="0" y1="22" y2="22" x2="186.1999969482422"></line><text x="5" y="32" fill="white" class="classText"><tspan x="5">dimension</tspan></text><line x1="0" y1="39" y2="39" x2="186.1999969482422"></line><text x="5" y="54" fill="white" class="classText"><tspan x="5">get_eigenfunctions(num)</tspan><tspan x="5" dy="10">get_eigenvalues(num)</tspan><tspan x="5" dy="10">is_tangent(vector, base_point, atol)</tspan></text></g><g id="classid-Hyperbolic-3175" class="classGroup" transform="translate(601.1499919891357,151 )"><rect x="0" y="0" width="192.60000610351562" height="81" class=" "></rect><text y="15" x="0"><tspan class="title" x="69.50000381469727">Hyperbolic</tspan></text><line x1="0" y1="22" y2="22" x2="192.60000610351562"></line><text x="5" y="32" fill="white" class="classText"><tspan x="5">dimension</tspan></text><line x1="0" y1="39" y2="39" x2="192.60000610351562"></line><text x="5" y="54" fill="white" class="classText"><tspan x="5">distance(x1, x2, diag)</tspan><tspan x="5" dy="10">heat_kernel(distance, t, num_points)</tspan><tspan x="5" dy="10">inner_product(vector_a, vector_b)</tspan></text></g><g id="classid-DiscreteSpectrumSpace-3176" class="classGroup" transform="translate(942.2499980926514,162 )"><rect x="0" y="0" width="135" height="59" class=" "></rect><text y="15" x="0"><tspan class="title" x="9.5">DiscreteSpectrumSpace</tspan></text><line x1="0" y1="22" y2="22" x2="135"></line><text x="5" y="32" fill="white" class="classText"></text><line x1="0" y1="27" y2="27" x2="135"></line><text x="5" y="42" fill="white" class="classText"><tspan x="5">get_eigenfunctions(num)</tspan><tspan x="5" dy="10">get_eigenvalues(num)</tspan></text></g><g id="classid-GPflowGeometricKernel-3177" class="classGroup" transform="translate(549.1999969482422,0 )"><rect x="0" y="0" width="129.1999969482422" height="101" class=" "></rect><text y="15" x="0"><tspan class="title" x="6.1999969482421875">GPflowGeometricKernel</tspan></text><line x1="0" y1="22" y2="22" x2="129.1999969482422"></line><text x="5" y="32" fill="white" class="classText"><tspan x="5">lengthscale</tspan><tspan x="5" dy="10">nu</tspan><tspan x="5" dy="10">space</tspan><tspan x="5" dy="10">state</tspan></text><line x1="0" y1="69" y2="69" x2="129.1999969482422"></line><text x="5" y="84" fill="white" class="classText"><tspan x="5">K(X, X2)</tspan><tspan x="5" dy="10">K_diag(X)</tspan></text></g><g id="classid-GPytorchGeometricKernel-3178" class="classGroup" transform="translate(289,0 )"><rect x="0" y="0" width="210.1999969482422" height="101" class=" "></rect><text y="15" x="0"><tspan class="title" x="41.099998474121094">GPytorchGeometricKernel</tspan></text><line x1="0" y1="22" y2="22" x2="210.1999969482422"></line><text x="5" y="32" fill="white" class="classText"><tspan x="5">has_lengthscale</tspan><tspan x="5" dy="10">lengthscale</tspan><tspan x="5" dy="10">nu</tspan><tspan x="5" dy="10">space</tspan><tspan x="5" dy="10">state</tspan></text><line x1="0" y1="79" y2="79" x2="210.1999969482422"></line><text x="5" y="94" fill="white" class="classText"><tspan x="5">forward(x1, x2, diag, last_dim_is_batch)</tspan></text></g><g id="classid-Graph-3179" class="classGroup" transform="translate(832.5499973297119,317 )"><rect x="0" y="0" width="135" height="71" class=" "></rect><text y="15" x="0"><tspan class="title" x="52.30000019073486">Graph</tspan></text><line x1="0" y1="22" y2="22" x2="135"></line><text x="5" y="32" fill="white" class="classText"><tspan x="5">dimension</tspan></text><line x1="0" y1="39" y2="39" x2="135"></line><text x="5" y="54" fill="white" class="classText"><tspan x="5">get_eigenfunctions(num)</tspan><tspan x="5" dy="10">get_eigenvalues(num)</tspan></text></g><g id="classid-Hypersphere-3180" class="classGroup" transform="translate(1017.5499973297119,307 )"><rect x="0" y="0" width="203.8000030517578" height="91" class=" "></rect><text y="15" x="0"><tspan class="title" x="70.30000114440918">Hypersphere</tspan></text><line x1="0" y1="22" y2="22" x2="203.8000030517578"></line><text x="5" y="32" fill="white" class="classText"><tspan x="5">dim</tspan><tspan x="5" dy="10">dimension</tspan></text><line x1="0" y1="49.00000190734863" y2="49.00000190734863" x2="203.8000030517578"></line><text x="5" y="64.00000190734863" fill="white" class="classText"><tspan x="5">ehess2rhess(x, egrad, ehess, direction)</tspan><tspan x="5" dy="10">get_eigenfunctions(num)</tspan><tspan x="5" dy="10">get_eigenvalues(num)</tspan></text></g><g id="classid-MaternIntegratedKernel-3181" class="classGroup" transform="translate(88.5,302 )"><rect x="0" y="0" width="178.1999969482422" height="101" class=" "></rect><text y="15" x="0"><tspan class="title" x="30.299999237060547">MaternIntegratedKernel</tspan></text><line x1="0" y1="22" y2="22" x2="178.1999969482422"></line><text x="5" y="32" fill="white" class="classText"><tspan x="5">num_points_t</tspan></text><line x1="0" y1="39" y2="39" x2="178.1999969482422"></line><text x="5" y="54" fill="white" class="classText"><tspan x="5">K(params, state, X, X2)</tspan><tspan x="5" dy="10">K_diag(params, state, X)</tspan><tspan x="5" dy="10">init_params_and_state()</tspan><tspan x="5" dy="10">kernel(params, X, X2, diag)</tspan><tspan x="5" dy="10">link_function(params, distance, t)</tspan></text></g><g id="classid-MaternKarhunenLoeveKernel-3182" class="classGroup" transform="translate(391.5499973297119,302 )"><rect x="0" y="0" width="154.8000030517578" height="101" class=" "></rect><text y="15" x="0"><tspan class="title" x="6.200004577636719">MaternKarhunenLoeveKernel</tspan></text><line x1="0" y1="22" y2="22" x2="154.8000030517578"></line><text x="5" y="32" fill="white" class="classText"><tspan x="5">num_eigenfunctions</tspan></text><line x1="0" y1="39" y2="39" x2="154.8000030517578"></line><text x="5" y="54" fill="white" class="classText"><tspan x="5">K(params, state, X, X2)</tspan><tspan x="5" dy="10">K_diag(params, state, X)</tspan><tspan x="5" dy="10">eigenfunctions()</tspan><tspan x="5" dy="10">eigenvalues(params, state)</tspan><tspan x="5" dy="10">init_params_and_state()</tspan></text></g><g id="classid-Mesh-3183" class="classGroup" transform="translate(1271.3500003814697,282 )"><rect x="0" y="0" width="135" height="141" class=" "></rect><text y="15" x="0"><tspan class="title" x="55.10000038146973">Mesh</tspan></text><line x1="0" y1="22" y2="22" x2="135"></line><text x="5" y="32" fill="white" class="classText"><tspan x="5">dimension</tspan><tspan x="5" dy="10">faces</tspan><tspan x="5" dy="10">num_faces</tspan><tspan x="5" dy="10">num_vertices</tspan><tspan x="5" dy="10">vertices</tspan></text><line x1="0" y1="79" y2="79" x2="135"></line><text x="5" y="94" fill="white" class="classText"><tspan x="5">get_eigenfunctions(num)</tspan><tspan x="5" dy="10">get_eigensystem(num)</tspan><tspan x="5" dy="10">get_eigenvalues(num)</tspan><tspan x="5" dy="10">get_eigenvectors(num)</tspan><tspan x="5" dy="10">load_mesh(filename)</tspan></text></g><g id="classid-Space-3184" class="classGroup" transform="translate(870.149995803833,28.700000762939453 )"><rect x="0" y="0" width="65.4000015258789" height="43.599998474121094" class=" "></rect><text y="15" x="0"><tspan class="title" x="18.30000114440918">Space</tspan></text><line x1="0" y1="22" y2="22" x2="65.4000015258789"></line><text x="5" y="32" fill="white" class="classText"><tspan x="5">dimension</tspan></text><line x1="0" y1="39" y2="39" x2="65.4000015258789"></line><text x="5" y="54" fill="white" class="classText"></text></g><g id="classid-SparseGPaxGeometricKernel-3185" class="classGroup" transform="translate(0,6 )"><rect x="0" y="0" width="239" height="89" class=" "></rect><text y="15" x="0"><tspan class="title" x="49.900001525878906">SparseGPaxGeometricKernel</tspan></text><line x1="0" y1="22" y2="22" x2="239"></line><text x="5" y="32" fill="white" class="classText"></text><line x1="0" y1="27" y2="27" x2="239"></line><text x="5" y="42" fill="white" class="classText"><tspan x="5">init_params(key)</tspan><tspan x="5" dy="10">kernel(params)</tspan><tspan x="5" dy="10">matrix(params, x1, x2)</tspan><tspan x="5" dy="10">spectral_weights(params, frequency)</tspan><tspan x="5" dy="10">standard_spectral_measure(key, num_samples)</tspan></text></g><path d="M326.5999984741211,211.92147806004618L301.7666651407878,219.4345650500385C276.9333318074544,226.9476520400308,227.26666514078775,241.9738260200154,202.43333180745444,256.9869130100077C177.5999984741211,272,177.5999984741211,287,177.5999984741211,294.5L177.5999984741211,302" id="edge2421" class="relation" marker-start="url(#extensionStart)"></path><path d="M440.3812964199154,232L445.14274682586125,236.16666666666666C449.90419723180713,240.33333333333334,459.427098043699,248.66666666666666,464.18854844964494,260.3333333333333C468.9499988555908,272,468.9499988555908,287,468.9499988555908,294.5L468.9499988555908,302" id="edge2422" class="relation" marker-start="url(#extensionStart)"></path><path d="M119.5,95L119.5,100.16666666666667C119.5,105.33333333333333,119.5,115.66666666666667,154.01666641235352,129.06655133250322C188.53333282470703,142.46643599833976,257.56666564941406,158.93287199667952,292.0833320617676,167.1660899958494L326.5999984741211,175.39930799501929" id="edge2423" class="relation" marker-end="url(#compositionEnd)"></path><g class="classLabel"><rect class="box" x="187.4729766845703" y="135.0033416748047" width="41.79999923706055" height="17"></rect><text class="label" x="207.97297696701435" y="147.10335041347633" fill="red" text-anchor="middle">_kernel</text></g><path d="M394.0999984741211,101L394.0999984741211,105.16666666666667C394.0999984741211,109.33333333333333,394.0999984741211,117.66666666666667,394.0999984741211,126C394.0999984741211,134.33333333333334,394.0999984741211,142.66666666666666,394.0999984741211,146.83333333333334L394.0999984741211,151" id="edge2424" class="relation" marker-end="url(#compositionEnd)"></path><g class="classLabel"><rect class="box" x="373.6000061035156" y="113.9000015258789" width="41.79999923706055" height="17"></rect><text class="label" x="394.0999984741211" y="126" fill="red" text-anchor="middle">_kernel</text></g><path d="M613.7999954223633,101L613.7999954223633,105.16666666666667C613.7999954223633,109.33333333333333,613.7999954223633,117.66666666666667,588.4333292643229,129.39599449141733C563.0666631062826,141.125322316168,512.3333307902018,156.250644632336,486.96666463216144,163.81330579042L461.5999984741211,171.375966948504" id="edge2425" class="relation" marker-end="url(#compositionEnd)"></path><g class="classLabel"><rect class="box" x="529.178955078125" y="133.0166473388672" width="41.79999923706055" height="17"></rect><text class="label" x="549.6789606634545" y="145.1166492264356" fill="red" text-anchor="middle">_kernel</text></g><path d="M870.149995803833,62.519717815293546L841.3666623433431,73.09976484607796C812.5833288828532,83.67981187686236,755.0166619618734,104.83990593843119,726.2333285013834,119.58661963588226C697.4499950408936,134.33333333333334,697.4499950408936,142.66666666666666,697.4499950408936,146.83333333333334L697.4499950408936,151" id="edge2426" class="relation" marker-start="url(#extensionStart)"></path><path d="M933.716485993341,72.29999923706055L946.3887380098928,81.24999936421712C959.0609900264444,90.1999994913737,984.4054940595479,108.09999974568684,997.0777460760996,123.04999987284343C1009.7499980926514,138,1009.7499980926514,150,1009.7499980926514,156L1009.7499980926514,162" id="edge2427" class="relation" marker-start="url(#extensionStart)"></path><path d="M942.2499980926514,205.30346553397192L900.1166648864746,213.9195546116433C857.9833316802979,222.5356436893146,773.7166652679443,239.7678218446573,731.5833320617676,257.55057758899534C689.4499988555908,275.3333333333333,689.4499988555908,293.6666666666667,689.4499988555908,302.8333333333333L689.4499988555908,312" id="edge2428" class="relation" marker-start="url(#extensionStart)"></path><path d="M960.3431275200298,221L950.2942724883102,227C940.2454174565905,233,920.1477073931513,245,910.0988523614316,261C900.0499973297119,277,900.0499973297119,297,900.0499973297119,307L900.0499973297119,317" id="edge2429" class="relation" marker-start="url(#extensionStart)"></path><path d="M1059.156868665273,221L1069.2057236969924,227C1079.2545787287122,233,1099.3522887921515,245,1109.401143823871,259.3333333333333C1119.4499988555908,273.6666666666667,1119.4499988555908,290.3333333333333,1119.4499988555908,298.6666666666667L1119.4499988555908,307" id="edge2430" class="relation" marker-start="url(#extensionStart)"></path><path d="M1077.2499980926514,204.9343663605323L1120.849998474121,213.61197196711024C1164.4499988555908,222.2895775736882,1251.6499996185303,239.6447887868441,1295.25,252.48906106008872C1338.8500003814697,265.3333333333333,1338.8500003814697,273.6666666666667,1338.8500003814697,277.8333333333333L1338.8500003814697,282" id="edge2431" class="relation" marker-start="url(#extensionStart)"></path></svg>