<svg id="mermaid-svg-jxPEzn5JladR9YvC" width="100%" xmlns="http://www.w3.org/2000/svg" xmlns:xlink="http://www.w3.org/1999/xlink" height="378.078125" style="max-width: 706.7421875px;" viewBox="-20 -20 706.7421875 378.078125"><style>#mermaid-svg-jxPEzn5JladR9YvC{font-family:"trebuchet ms",verdana,arial,sans-serif;font-size:16px;fill:#000000;}#mermaid-svg-jxPEzn5JladR9YvC .error-icon{fill:#552222;}#mermaid-svg-jxPEzn5JladR9YvC .error-text{fill:#552222;stroke:#552222;}#mermaid-svg-jxPEzn5JladR9YvC .edge-thickness-normal{stroke-width:2px;}#mermaid-svg-jxPEzn5JladR9YvC .edge-thickness-thick{stroke-width:3.5px;}#mermaid-svg-jxPEzn5JladR9YvC .edge-pattern-solid{stroke-dasharray:0;}#mermaid-svg-jxPEzn5JladR9YvC .edge-pattern-dashed{stroke-dasharray:3;}#mermaid-svg-jxPEzn5JladR9YvC .edge-pattern-dotted{stroke-dasharray:2;}#mermaid-svg-jxPEzn5JladR9YvC .marker{fill:#666;stroke:#666;}#mermaid-svg-jxPEzn5JladR9YvC .marker.cross{stroke:#666;}#mermaid-svg-jxPEzn5JladR9YvC svg{font-family:"trebuchet ms",verdana,arial,sans-serif;font-size:16px;}#mermaid-svg-jxPEzn5JladR9YvC g.classGroup text{fill:#999;fill:#111111;stroke:none;font-family:"trebuchet ms",verdana,arial,sans-serif;font-size:10px;}#mermaid-svg-jxPEzn5JladR9YvC g.classGroup text .title{font-weight:bolder;}#mermaid-svg-jxPEzn5JladR9YvC .classTitle{font-weight:bolder;}#mermaid-svg-jxPEzn5JladR9YvC .node rect,#mermaid-svg-jxPEzn5JladR9YvC .node circle,#mermaid-svg-jxPEzn5JladR9YvC .node ellipse,#mermaid-svg-jxPEzn5JladR9YvC .node polygon,#mermaid-svg-jxPEzn5JladR9YvC .node path{fill:#eee;stroke:#999;stroke-width:1px;}#mermaid-svg-jxPEzn5JladR9YvC .divider{stroke:#999;stroke:1;}#mermaid-svg-jxPEzn5JladR9YvC g.clickable{cursor:pointer;}#mermaid-svg-jxPEzn5JladR9YvC g.classGroup rect{fill:#eee;stroke:#999;}#mermaid-svg-jxPEzn5JladR9YvC g.classGroup line{stroke:#999;stroke-width:1;}#mermaid-svg-jxPEzn5JladR9YvC .classLabel .box{stroke:none;stroke-width:0;fill:#eee;opacity:0.5;}#mermaid-svg-jxPEzn5JladR9YvC .classLabel .label{fill:#999;font-size:10px;}#mermaid-svg-jxPEzn5JladR9YvC .relation{stroke:#666;stroke-width:1;fill:none;}#mermaid-svg-jxPEzn5JladR9YvC .dashed-line{stroke-dasharray:3;}#mermaid-svg-jxPEzn5JladR9YvC #compositionStart,#mermaid-svg-jxPEzn5JladR9YvC .composition{fill:#666 !important;stroke:#666 !important;stroke-width:1;}#mermaid-svg-jxPEzn5JladR9YvC #compositionEnd,#mermaid-svg-jxPEzn5JladR9YvC .composition{fill:#666 !important;stroke:#666 !important;stroke-width:1;}#mermaid-svg-jxPEzn5JladR9YvC #dependencyStart,#mermaid-svg-jxPEzn5JladR9YvC .dependency{fill:#666 !important;stroke:#666 !important;stroke-width:1;}#mermaid-svg-jxPEzn5JladR9YvC #dependencyStart,#mermaid-svg-jxPEzn5JladR9YvC .dependency{fill:#666 !important;stroke:#666 !important;stroke-width:1;}#mermaid-svg-jxPEzn5JladR9YvC #extensionStart,#mermaid-svg-jxPEzn5JladR9YvC .extension{fill:#666 !important;stroke:#666 !important;stroke-width:1;}#mermaid-svg-jxPEzn5JladR9YvC #extensionEnd,#mermaid-svg-jxPEzn5JladR9YvC .extension{fill:#666 !important;stroke:#666 !important;stroke-width:1;}#mermaid-svg-jxPEzn5JladR9YvC #aggregationStart,#mermaid-svg-jxPEzn5JladR9YvC .aggregation{fill:#eee !important;stroke:#666 !important;stroke-width:1;}#mermaid-svg-jxPEzn5JladR9YvC #aggregationEnd,#mermaid-svg-jxPEzn5JladR9YvC .aggregation{fill:#eee !important;stroke:#666 !important;stroke-width:1;}#mermaid-svg-jxPEzn5JladR9YvC .edgeTerminals{font-size:11px;}#mermaid-svg-jxPEzn5JladR9YvC:root{--mermaid-font-family:"trebuchet ms",verdana,arial,sans-serif;}#mermaid-svg-jxPEzn5JladR9YvC class{fill:apa;}</style><g></g><defs><marker id="extensionStart" class="extension" refX="0" refY="7" markerWidth="190" markerHeight="240" orient="auto"><path d="M 1,7 L18,13 V 1 Z"></path></marker></defs><defs><marker id="extensionEnd" refX="19" refY="7" markerWidth="20" markerHeight="28" orient="auto"><path d="M 1,1 V 13 L18,7 Z"></path></marker></defs><defs><marker id="compositionStart" class="extension" refX="0" refY="7" markerWidth="190" markerHeight="240" orient="auto"><path d="M 18,7 L9,13 L1,7 L9,1 Z"></path></marker></defs><defs><marker id="compositionEnd" refX="19" refY="7" markerWidth="20" markerHeight="28" orient="auto"><path d="M 18,7 L9,13 L1,7 L9,1 Z"></path></marker></defs><defs><marker id="aggregationStart" class="extension" refX="0" refY="7" markerWidth="190" markerHeight="240" orient="auto"><path d="M 18,7 L9,13 L1,7 L9,1 Z"></path></marker></defs><defs><marker id="aggregationEnd" refX="19" refY="7" markerWidth="20" markerHeight="28" orient="auto"><path d="M 18,7 L9,13 L1,7 L9,1 Z"></path></marker></defs><defs><marker id="dependencyStart" class="extension" refX="0" refY="7" markerWidth="190" markerHeight="240" orient="auto"><path d="M 5,7 L9,13 L1,7 L9,1 Z"></path></marker></defs><defs><marker id="dependencyEnd" refX="19" refY="7" markerWidth="20" markerHeight="28" orient="auto"><path d="M 18,7 L9,13 L14,7 L9,1 Z"></path></marker></defs><g id="classid-Space-3851" class="classGroup" transform="translate(132.3125,13.6484375 )"><rect x="0" y="0" width="88.59375" height="52.0625" class=" "></rect><text y="15" x="0"><tspan x="18.5625">«interface»</tspan><tspan class="title" dy="10" x="30.7265625">Space</tspan></text><line x1="0" y1="31.453125" y2="31.453125" x2="88.59375"></line><text x="5" y="41.453125" fill="white" class="classText"><tspan x="5">+int dimension</tspan></text><line x1="0" y1="47.90625" y2="47.90625" x2="88.59375"></line><text x="5" y="62.90625" fill="white" class="classText"></text></g><g id="classid-SpaceWithEigenDecomposition-3852" class="classGroup" transform="translate(74.3671875,135.0859375 )"><rect x="0" y="0" width="204.484375" height="67.90625" class=" "></rect><text y="15" x="0"><tspan x="76.5078125">«interface»</tspan><tspan class="title" dy="10" x="30.7265625">SpaceWithEigenDecomposition</tspan></text><line x1="0" y1="31.453125" y2="31.453125" x2="204.484375"></line><text x="5" y="41.453125" fill="white" class="classText"></text><line x1="0" y1="36.453125" y2="36.453125" x2="204.484375"></line><text x="5" y="51.453125" fill="white" class="classText"><tspan x="5">+get_eigenvalues(num)</tspan><tspan x="5" dy="10">+get_eigenfunctions(num)</tspan></text></g><g id="classid-Graph-3853" class="classGroup" transform="translate(0,263.71875 )"><rect x="0" y="0" width="84.40625" height="69.359375" class=" "></rect><text y="15" x="0"><tspan class="title" x="28.1640625">Graph</tspan></text><line x1="0" y1="21.453125" y2="21.453125" x2="84.40625"></line><text x="5" y="31.453125" fill="white" class="classText"><tspan x="5">+nodes</tspan><tspan x="5" dy="10">+edges</tspan></text><line x1="0" y1="47.90625" y2="47.90625" x2="84.40625"></line><text x="5" y="62.90625" fill="white" class="classText"><tspan x="5">+eigenvectors()</tspan></text></g><g id="classid-Mesh-3854" class="classGroup" transform="translate(134.40625,258.71875 )"><rect x="0" y="0" width="84.40625" height="79.359375" class=" "></rect><text y="15" x="0"><tspan class="title" x="30.484375">Mesh</tspan></text><line x1="0" y1="21.453125" y2="21.453125" x2="84.40625"></line><text x="5" y="31.453125" fill="white" class="classText"><tspan x="5">+vertices</tspan><tspan x="5" dy="10">+faces</tspan></text><line x1="0" y1="47.90625" y2="47.90625" x2="84.40625"></line><text x="5" y="62.90625" fill="white" class="classText"><tspan x="5">+eigenvectors()</tspan><tspan x="5" dy="10">+load_mesh()</tspan></text></g><g id="classid-Hypersphere-3855" class="classGroup" transform="translate(295.4453125,274.4453125 )"><rect x="0" y="0" width="149.484375" height="47.90625" class=" "></rect><text y="15" x="0"><tspan class="title" x="44.8203125">Hypersphere</tspan></text><line x1="0" y1="21.453125" y2="21.453125" x2="149.484375"></line><text x="5" y="31.453125" fill="white" class="classText"></text><line x1="0" y1="26.453125" y2="26.453125" x2="149.484375"></line><text x="5" y="41.453125" fill="white" class="classText"><tspan x="5">+all_functions_in_geomstats()</tspan></text></g><g id="classid-GeomstatsManifolds-3856" class="classGroup" transform="translate(328.8515625,153.734375 )"><rect x="0" y="0" width="102.671875" height="30.609375" class=" "></rect><text y="15" x="0"><tspan class="title" x="5">GeomstatsManifolds</tspan></text><line x1="0" y1="21.453125" y2="21.453125" x2="102.671875"></line><text x="5" y="31.453125" fill="white" class="classText"></text><line x1="0" y1="26.453125" y2="26.453125" x2="102.671875"></line><text x="5" y="41.453125" fill="white" class="classText"></text></g><g id="classid-BaseGeometricKernel-3857" class="classGroup" transform="translate(492.9375,0 )"><rect x="0" y="0" width="162.390625" height="79.359375" class=" "></rect><text y="15" x="0"><tspan x="55.4609375">«interface»</tspan><tspan class="title" dy="10" x="30.7265625">BaseGeometricKernel</tspan></text><line x1="0" y1="31.453125" y2="31.453125" x2="162.390625"></line><text x="5" y="41.453125" fill="white" class="classText"><tspan x="5">+Space space</tspan></text><line x1="0" y1="47.90625" y2="47.90625" x2="162.390625"></line><text x="5" y="62.90625" fill="white" class="classText"><tspan x="5">+K(X, parameters)</tspan><tspan x="5" dy="10">+K_diag(X, parameters)</tspan></text></g><g id="classid-MaternKarhunenLoeveKernel-3858" class="classGroup" transform="translate(481.5234375,129.359375 )"><rect x="0" y="0" width="185.21875" height="79.359375" class=" "></rect><text y="15" x="0"><tspan class="title" x="24.3203125">MaternKarhunenLoeveKernel</tspan></text><line x1="0" y1="21.453125" y2="21.453125" x2="185.21875"></line><text x="5" y="31.453125" fill="white" class="classText"><tspan x="5">+SpaceWithEigenDecomposition space</tspan></text><line x1="0" y1="37.90625" y2="37.90625" x2="185.21875"></line><text x="5" y="52.90625" fill="white" class="classText"><tspan x="5">+spectrum()</tspan><tspan x="5" dy="10">+eigenfunctions()</tspan><tspan x="5" dy="10">+eigenvalues()</tspan></text></g><path d="M176.609375,65.7109375L176.609375,72.15234375C176.609375,78.59375,176.609375,91.4765625,176.609375,103.0390625C176.609375,114.6015625,176.609375,124.84375,176.609375,129.96484375L176.609375,135.0859375" id="edge2624" class="relation" marker-start="url(#extensionStart)"></path><path d="M106.05380518480493,202.9921875L95.4120251540041,208.11328125C84.77024512320328,213.234375,63.48668506160164,223.4765625,52.84490503080082,233.59765625C42.203125,243.71875,42.203125,253.71875,42.203125,258.71875L42.203125,263.71875" id="edge2625" class="relation" marker-start="url(#extensionStart)"></path><path d="M176.609375,202.9921875L176.609375,208.11328125C176.609375,213.234375,176.609375,223.4765625,176.609375,232.76432291666666C176.609375,242.05208333333334,176.609375,250.38541666666666,176.609375,254.55208333333334L176.609375,258.71875" id="edge2626" class="relation" marker-start="url(#extensionStart)"></path><path d="M225.67715662368644,202.9921875L233.07796906140538,208.11328125C240.47878149912427,213.234375,255.28040637456215,223.4765625,273.18671079186294,235.38541666666666C291.09301520916375,247.29427083333334,312.1039991683275,260.8697916666667,322.6094911479094,267.6575520833333L333.11498312749126,274.4453125" id="edge2627" class="relation" marker-start="url(#extensionStart)"></path><path d="M380.1875,184.34375L380.1875,192.57291666666666C380.1875,200.80208333333334,380.1875,217.26041666666666,379.13805763578534,232.27734375C378.08861527157063,247.29427083333334,375.9897305431412,260.8697916666667,374.94028817892655,267.6575520833333L373.8908458147119,274.4453125" id="edge2628" class="relation" marker-start="url(#extensionStart)"></path><path d="M574.1328125,79.359375L574.1328125,83.52604166666667C574.1328125,87.69270833333333,574.1328125,96.02604166666667,574.1328125,104.359375C574.1328125,112.69270833333333,574.1328125,121.02604166666667,574.1328125,125.19270833333333L574.1328125,129.359375" id="edge2629" class="relation" marker-start="url(#extensionStart)"></path></svg>